<svg width="176" height="177" viewBox="0 0 176 177" fill="none" xmlns="http://www.w3.org/2000/svg">
<circle cx="88" cy="88.252" r="88" fill="#171D20"/>
<g filter="url(#filter0_d_213_143)">
<path d="M73.8534 84.0535L70.4844 46.252H107.516L104.143 84.0475L88.9779 88.252L73.8534 84.0535Z" fill="#1572B6"/>
<path d="M89 85.039L101.255 81.6415L104.138 49.3435H89V85.039Z" fill="#33A9DC"/>
<path d="M89 63.0384H95.135L95.558 58.2909H89V53.6544H100.625L100.514 54.8979L99.3755 67.6749H89V63.0384Z" fill="white"/>
<path d="M89.0289 75.0789L89.0079 75.0849L83.8449 73.6899L83.5149 69.9924H78.8604L79.5099 77.2719L89.0064 79.9089L89.0289 79.9029V75.0789Z" fill="#EBEBEB"/>
<path d="M94.7402 67.4784L94.1822 73.6869L89.0117 75.0819V79.9059L98.5157 77.2719L98.5862 76.4889L99.3917 67.4784H94.7402Z" fill="white"/>
<path d="M89.0168 53.6544V58.2909H77.8178L77.7248 57.2484L77.5133 54.8979L77.4023 53.6544H89.0168Z" fill="#EBEBEB"/>
<path d="M88.9998 63.0385V67.675H83.9013L83.8083 66.6325L83.5983 64.282L83.4873 63.0385H88.9998Z" fill="#EBEBEB"/>
</g>
<path d="M72.2574 120.97C72.2574 119.746 72.5334 118.648 73.0854 117.676C73.6374 116.692 74.3874 115.924 75.3354 115.372C76.2954 114.82 77.3574 114.544 78.5214 114.544C79.8894 114.544 81.0834 114.874 82.1034 115.534C83.1234 116.194 83.8674 117.13 84.3354 118.342H82.3734C82.0254 117.586 81.5214 117.004 80.8614 116.596C80.2134 116.188 79.4334 115.984 78.5214 115.984C77.6454 115.984 76.8594 116.188 76.1634 116.596C75.4674 117.004 74.9214 117.586 74.5254 118.342C74.1294 119.086 73.9314 119.962 73.9314 120.97C73.9314 121.966 74.1294 122.842 74.5254 123.598C74.9214 124.342 75.4674 124.918 76.1634 125.326C76.8594 125.734 77.6454 125.938 78.5214 125.938C79.4334 125.938 80.2134 125.74 80.8614 125.344C81.5214 124.936 82.0254 124.354 82.3734 123.598H84.3354C83.8674 124.798 83.1234 125.728 82.1034 126.388C81.0834 127.036 79.8894 127.36 78.5214 127.36C77.3574 127.36 76.2954 127.09 75.3354 126.55C74.3874 125.998 73.6374 125.236 73.0854 124.264C72.5334 123.292 72.2574 122.194 72.2574 120.97ZM90.7517 127.378C89.9237 127.378 89.1797 127.234 88.5197 126.946C87.8717 126.646 87.3617 126.238 86.9897 125.722C86.6177 125.194 86.4257 124.588 86.4137 123.904H88.1597C88.2197 124.492 88.4597 124.99 88.8797 125.398C89.3117 125.794 89.9357 125.992 90.7517 125.992C91.5317 125.992 92.1437 125.8 92.5877 125.416C93.0437 125.02 93.2717 124.516 93.2717 123.904C93.2717 123.424 93.1397 123.034 92.8757 122.734C92.6117 122.434 92.2817 122.206 91.8857 122.05C91.4897 121.894 90.9557 121.726 90.2837 121.546C89.4557 121.33 88.7897 121.114 88.2857 120.898C87.7937 120.682 87.3677 120.346 87.0077 119.89C86.6597 119.422 86.4857 118.798 86.4857 118.018C86.4857 117.334 86.6597 116.728 87.0077 116.2C87.3557 115.672 87.8417 115.264 88.4657 114.976C89.1017 114.688 89.8277 114.544 90.6437 114.544C91.8197 114.544 92.7797 114.838 93.5237 115.426C94.2797 116.014 94.7057 116.794 94.8017 117.766H93.0017C92.9417 117.286 92.6897 116.866 92.2457 116.506C91.8017 116.134 91.2137 115.948 90.4817 115.948C89.7977 115.948 89.2397 116.128 88.8077 116.488C88.3757 116.836 88.1597 117.328 88.1597 117.964C88.1597 118.42 88.2857 118.792 88.5377 119.08C88.8017 119.368 89.1197 119.59 89.4917 119.746C89.8757 119.89 90.4097 120.058 91.0937 120.25C91.9217 120.478 92.5877 120.706 93.0917 120.934C93.5957 121.15 94.0277 121.492 94.3877 121.96C94.7477 122.416 94.9277 123.04 94.9277 123.832C94.9277 124.444 94.7657 125.02 94.4417 125.56C94.1177 126.1 93.6377 126.538 93.0017 126.874C92.3657 127.21 91.6157 127.378 90.7517 127.378ZM101.316 127.378C100.488 127.378 99.7441 127.234 99.0841 126.946C98.4361 126.646 97.9261 126.238 97.5541 125.722C97.1821 125.194 96.9901 124.588 96.9781 123.904H98.7241C98.7841 124.492 99.0241 124.99 99.4441 125.398C99.8761 125.794 100.5 125.992 101.316 125.992C102.096 125.992 102.708 125.8 103.152 125.416C103.608 125.02 103.836 124.516 103.836 123.904C103.836 123.424 103.704 123.034 103.44 122.734C103.176 122.434 102.846 122.206 102.45 122.05C102.054 121.894 101.52 121.726 100.848 121.546C100.02 121.33 99.3541 121.114 98.8501 120.898C98.3581 120.682 97.9321 120.346 97.5721 119.89C97.2241 119.422 97.0501 118.798 97.0501 118.018C97.0501 117.334 97.2241 116.728 97.5721 116.2C97.9201 115.672 98.4061 115.264 99.0301 114.976C99.6661 114.688 100.392 114.544 101.208 114.544C102.384 114.544 103.344 114.838 104.088 115.426C104.844 116.014 105.27 116.794 105.366 117.766H103.566C103.506 117.286 103.254 116.866 102.81 116.506C102.366 116.134 101.778 115.948 101.046 115.948C100.362 115.948 99.8041 116.128 99.3721 116.488C98.9401 116.836 98.7241 117.328 98.7241 117.964C98.7241 118.42 98.8501 118.792 99.1021 119.08C99.3661 119.368 99.6841 119.59 100.056 119.746C100.44 119.89 100.974 120.058 101.658 120.25C102.486 120.478 103.152 120.706 103.656 120.934C104.16 121.15 104.592 121.492 104.952 121.96C105.312 122.416 105.492 123.04 105.492 123.832C105.492 124.444 105.33 125.02 105.006 125.56C104.682 126.1 104.202 126.538 103.566 126.874C102.93 127.21 102.18 127.378 101.316 127.378Z" fill="#706C63"/>
<defs>
<filter id="filter0_d_213_143" x="61" y="43.252" width="56" height="56" filterUnits="userSpaceOnUse" color-interpolation-filters="sRGB">
<feFlood flood-opacity="0" result="BackgroundImageFix"/>
<feColorMatrix in="SourceAlpha" type="matrix" values="0 0 0 0 0 0 0 0 0 0 0 0 0 0 0 0 0 0 127 0" result="hardAlpha"/>
<feOffset dy="4"/>
<feGaussianBlur stdDeviation="2"/>
<feComposite in2="hardAlpha" operator="out"/>
<feColorMatrix type="matrix" values="0 0 0 0 0 0 0 0 0 0 0 0 0 0 0 0 0 0 0.25 0"/>
<feBlend mode="normal" in2="BackgroundImageFix" result="effect1_dropShadow_213_143"/>
<feBlend mode="normal" in="SourceGraphic" in2="effect1_dropShadow_213_143" result="shape"/>
</filter>
</defs>
</svg>
