<svg width="176" height="177" viewBox="0 0 176 177" fill="none" xmlns="http://www.w3.org/2000/svg">
<circle cx="88" cy="88.252" r="88" fill="#171D20"/>
<g clip-path="url(#clip0_213_98)">
<path d="M96.5 75.252C100.918 75.252 104.5 71.6702 104.5 67.252C104.5 62.8337 100.918 59.252 96.5 59.252C92.0817 59.252 88.5 62.8337 88.5 67.252C88.5 71.6702 92.0817 75.252 96.5 75.252Z" fill="#19BCFE"/>
<path fill-rule="evenodd" clip-rule="evenodd" d="M80.5 91.252C82.6217 91.252 84.6566 90.4091 86.1569 88.9088C87.6571 87.4085 88.5 85.3737 88.5 83.252V75.252H80.5C78.3783 75.252 76.3434 76.0948 74.8431 77.5951C73.3429 79.0954 72.5 81.1302 72.5 83.252C72.5 85.3737 73.3429 87.4085 74.8431 88.9088C76.3434 90.4091 78.3783 91.252 80.5 91.252Z" fill="#09CF83"/>
<path fill-rule="evenodd" clip-rule="evenodd" d="M80.5 75.252H88.5V59.252H80.5C78.3783 59.252 76.3434 60.0948 74.8431 61.5951C73.3429 63.0954 72.5 65.1302 72.5 67.252C72.5 69.3737 73.3429 71.4085 74.8431 72.9088C76.3434 74.4091 78.3783 75.252 80.5 75.252Z" fill="#A259FF"/>
<path fill-rule="evenodd" clip-rule="evenodd" d="M80.5 59.252H88.5V43.252H80.5C78.3783 43.252 76.3434 44.0948 74.8431 45.5951C73.3429 47.0954 72.5 49.1302 72.5 51.252C72.5 53.3737 73.3429 55.4085 74.8431 56.9088C76.3434 58.4091 78.3783 59.252 80.5 59.252Z" fill="#F24E1E"/>
<path fill-rule="evenodd" clip-rule="evenodd" d="M96.5 59.252H88.5V43.252H96.5C98.6217 43.252 100.657 44.0948 102.157 45.5951C103.657 47.0954 104.5 49.1302 104.5 51.252C104.5 53.3737 103.657 55.4085 102.157 56.9088C100.657 58.4091 98.6217 59.252 96.5 59.252Z" fill="#FF7262"/>
</g>
<path d="M68.7915 114.706V116.038H63.3375V120.268H67.7655V121.6H63.3375V127.252H61.6995V114.706H68.7915ZM71.6158 115.786C71.3038 115.786 71.0398 115.678 70.8238 115.462C70.6078 115.246 70.4998 114.982 70.4998 114.67C70.4998 114.358 70.6078 114.094 70.8238 113.878C71.0398 113.662 71.3038 113.554 71.6158 113.554C71.9158 113.554 72.1678 113.662 72.3718 113.878C72.5878 114.094 72.6958 114.358 72.6958 114.67C72.6958 114.982 72.5878 115.246 72.3718 115.462C72.1678 115.678 71.9158 115.786 71.6158 115.786ZM72.4078 117.388V127.252H70.7698V117.388H72.4078ZM79.2675 117.226C80.1195 117.226 80.8635 117.412 81.4995 117.784C82.1475 118.156 82.6275 118.624 82.9395 119.188V117.388H84.5955V127.468C84.5955 128.368 84.4035 129.166 84.0195 129.862C83.6355 130.57 83.0835 131.122 82.3635 131.518C81.6555 131.914 80.8275 132.112 79.8795 132.112C78.5835 132.112 77.5035 131.806 76.6395 131.194C75.7755 130.582 75.2655 129.748 75.1095 128.692H76.7295C76.9095 129.292 77.2815 129.772 77.8455 130.132C78.4095 130.504 79.0875 130.69 79.8795 130.69C80.7795 130.69 81.5115 130.408 82.0755 129.844C82.6515 129.28 82.9395 128.488 82.9395 127.468V125.398C82.6155 125.974 82.1355 126.454 81.4995 126.838C80.8635 127.222 80.1195 127.414 79.2675 127.414C78.3915 127.414 77.5935 127.198 76.8735 126.766C76.1655 126.334 75.6075 125.728 75.1995 124.948C74.7915 124.168 74.5875 123.28 74.5875 122.284C74.5875 121.276 74.7915 120.394 75.1995 119.638C75.6075 118.87 76.1655 118.276 76.8735 117.856C77.5935 117.436 78.3915 117.226 79.2675 117.226ZM82.9395 122.302C82.9395 121.558 82.7895 120.91 82.4895 120.358C82.1895 119.806 81.7815 119.386 81.2655 119.098C80.7615 118.798 80.2035 118.648 79.5915 118.648C78.9795 118.648 78.4215 118.792 77.9175 119.08C77.4135 119.368 77.0115 119.788 76.7115 120.34C76.4115 120.892 76.2615 121.54 76.2615 122.284C76.2615 123.04 76.4115 123.7 76.7115 124.264C77.0115 124.816 77.4135 125.242 77.9175 125.542C78.4215 125.83 78.9795 125.974 79.5915 125.974C80.2035 125.974 80.7615 125.83 81.2655 125.542C81.7815 125.242 82.1895 124.816 82.4895 124.264C82.7895 123.7 82.9395 123.046 82.9395 122.302ZM99.2255 117.208C99.9935 117.208 100.678 117.37 101.278 117.694C101.878 118.006 102.352 118.48 102.7 119.116C103.048 119.752 103.222 120.526 103.222 121.438V127.252H101.602V121.672C101.602 120.688 101.356 119.938 100.864 119.422C100.384 118.894 99.7295 118.63 98.9015 118.63C98.0495 118.63 97.3715 118.906 96.8675 119.458C96.3635 119.998 96.1115 120.784 96.1115 121.816V127.252H94.4915V121.672C94.4915 120.688 94.2455 119.938 93.7535 119.422C93.2735 118.894 92.6195 118.63 91.7915 118.63C90.9395 118.63 90.2615 118.906 89.7575 119.458C89.2535 119.998 89.0015 120.784 89.0015 121.816V127.252H87.3635V117.388H89.0015V118.81C89.3255 118.294 89.7575 117.898 90.2975 117.622C90.8495 117.346 91.4555 117.208 92.1155 117.208C92.9435 117.208 93.6755 117.394 94.3115 117.766C94.9475 118.138 95.4215 118.684 95.7335 119.404C96.0095 118.708 96.4655 118.168 97.1015 117.784C97.7375 117.4 98.4455 117.208 99.2255 117.208ZM105.296 122.284C105.296 121.276 105.5 120.394 105.908 119.638C106.316 118.87 106.874 118.276 107.582 117.856C108.302 117.436 109.1 117.226 109.976 117.226C110.84 117.226 111.59 117.412 112.226 117.784C112.862 118.156 113.336 118.624 113.648 119.188V117.388H115.304V127.252H113.648V125.416C113.324 125.992 112.838 126.472 112.19 126.856C111.554 127.228 110.81 127.414 109.958 127.414C109.082 127.414 108.29 127.198 107.582 126.766C106.874 126.334 106.316 125.728 105.908 124.948C105.5 124.168 105.296 123.28 105.296 122.284ZM113.648 122.302C113.648 121.558 113.498 120.91 113.198 120.358C112.898 119.806 112.49 119.386 111.974 119.098C111.47 118.798 110.912 118.648 110.3 118.648C109.688 118.648 109.13 118.792 108.626 119.08C108.122 119.368 107.72 119.788 107.42 120.34C107.12 120.892 106.97 121.54 106.97 122.284C106.97 123.04 107.12 123.7 107.42 124.264C107.72 124.816 108.122 125.242 108.626 125.542C109.13 125.83 109.688 125.974 110.3 125.974C110.912 125.974 111.47 125.83 111.974 125.542C112.49 125.242 112.898 124.816 113.198 124.264C113.498 123.7 113.648 123.046 113.648 122.302Z" fill="#706C63"/>
<defs>
<clipPath id="clip0_213_98">
<rect width="48" height="48" fill="white" transform="translate(64.5 43.252)"/>
</clipPath>
</defs>
</svg>
