<svg width="176" height="177" viewBox="0 0 176 177" fill="none" xmlns="http://www.w3.org/2000/svg">
<circle cx="88" cy="88.252" r="88" fill="#171D20"/>
<path d="M73.8529 84.0535L70.4824 46.252H107.517L104.142 84.0475L88.9774 88.252L73.8529 84.0535Z" fill="#E44F26"/>
<path d="M89 85.039L101.255 81.6415L104.138 49.3435H89V85.039Z" fill="#F1662A"/>
<path d="M89 63.3624H82.865L82.442 58.6149H89V53.9784H77.375L77.486 55.2234L78.6245 67.9989H89V63.3624Z" fill="#EBEBEB"/>
<path d="M88.9996 75.403L88.9786 75.409L83.8156 74.0155L83.4856 70.318H78.8311L79.4806 77.596L88.9786 80.233L88.9996 80.227V75.403Z" fill="#EBEBEB"/>
<path d="M88.9834 63.3624V67.9989H94.6924L94.1554 74.0124L88.9834 75.4074V80.2314L98.4889 77.5959L98.5579 76.8129L99.6469 64.6074L99.7609 63.3624H88.9834Z" fill="white"/>
<path d="M88.9834 53.9784V58.6149H100.182L100.275 57.5739L100.487 55.2234L100.598 53.9784H88.9834Z" fill="white"/>
<path d="M77.3147 114.706V127.252H75.6767V121.564H69.2867V127.252H67.6487V114.706H69.2867V120.214H75.6767V114.706H77.3147ZM87.8336 114.706V116.038H84.4136V127.252H82.7756V116.038H79.3376V114.706H87.8336ZM102.576 114.796V127.252H100.938V117.964L96.7979 127.252H95.6459L91.4879 117.946V127.252H89.8499V114.796H91.6139L96.2219 125.092L100.83 114.796H102.576ZM106.992 125.92H111.384V127.252H105.354V114.706H106.992V125.92Z" fill="#706C63"/>
</svg>
