<svg width="176" height="177" viewBox="0 0 176 177" fill="none" xmlns="http://www.w3.org/2000/svg">
<circle cx="88" cy="88.252" r="88" fill="#171D20"/>
<g clip-path="url(#clip0_213_119)">
<path d="M109.833 43.252H67.1667C65.6939 43.252 64.5 44.4459 64.5 45.9186V88.5853C64.5 90.058 65.6939 91.252 67.1667 91.252H109.833C111.306 91.252 112.5 90.058 112.5 88.5853V45.9186C112.5 44.4459 111.306 43.252 109.833 43.252Z" fill="#21759B"/>
<path fill-rule="evenodd" clip-rule="evenodd" d="M74.8555 67.2693C74.8555 72.6766 77.9981 77.3506 82.5555 79.5646L76.0381 61.7086C75.257 63.4581 74.854 65.3527 74.8555 67.2686V67.2693ZM97.7401 66.58C97.7401 64.8913 97.1335 63.722 96.6141 62.812C95.9221 61.686 95.2721 60.734 95.2721 59.608C95.2721 58.352 96.2248 57.1833 97.5668 57.1833C97.6268 57.1833 97.6848 57.19 97.7435 57.194C95.2273 54.8829 91.9339 53.6026 88.5175 53.6073C83.7441 53.6073 79.5455 56.056 77.1028 59.7646C77.4228 59.7753 77.7255 59.7813 77.9815 59.7813C79.4108 59.7813 81.6228 59.608 81.6228 59.608C82.3595 59.5646 82.4461 60.6466 81.7108 60.734C81.7108 60.734 80.9701 60.8206 80.1468 60.8633L85.1215 75.6626L88.1121 66.696L85.9835 60.8633C85.2475 60.82 84.5501 60.734 84.5501 60.734C83.8141 60.69 83.9008 59.5646 84.6368 59.6073C84.6368 59.6073 86.8935 59.7813 88.2355 59.7813C89.6641 59.7813 91.8768 59.608 91.8768 59.608C92.6135 59.5646 92.7001 60.6466 91.9641 60.734C91.9641 60.734 91.2228 60.8206 90.4008 60.8633L95.3381 75.55L96.7008 70.9966C97.2908 69.106 97.7408 67.7493 97.7408 66.58" fill="white"/>
<path fill-rule="evenodd" clip-rule="evenodd" d="M88.7582 68.4639L84.6582 80.3759C87.4107 81.1872 90.3488 81.1109 93.0555 80.1579C93.0177 80.0981 92.9849 80.0352 92.9575 79.9699L88.7582 68.4639ZM100.508 60.7146C100.566 61.1499 100.599 61.6166 100.599 62.1199C100.599 63.5053 100.339 65.0639 99.5602 67.0133L95.3869 79.0779C99.4489 76.7099 102.18 72.3093 102.18 67.2693C102.18 64.8939 101.574 62.6606 100.507 60.7146" fill="white"/>
<path fill-rule="evenodd" clip-rule="evenodd" d="M88.5178 82.4653C80.1391 82.4653 73.3225 75.648 73.3225 67.2693C73.3225 58.8907 80.1391 52.074 88.5178 52.074C96.8971 52.074 103.714 58.8907 103.714 67.2693C103.714 75.648 96.8971 82.4653 88.5178 82.4653ZM88.5178 51.3427C79.7365 51.3433 72.5918 58.4873 72.5918 67.2693C72.5918 76.0513 79.7365 83.196 88.5185 83.196C97.2998 83.196 104.444 76.0513 104.444 67.2693C104.444 58.4873 97.2998 51.3433 88.5178 51.3433" fill="white"/>
</g>
<path d="M57.2526 114.706L53.6166 127.252H51.7806L48.8646 117.154L45.8406 127.252L44.0226 127.27L40.5126 114.706H42.2586L44.9946 125.344L48.0186 114.706H49.8546L52.7346 125.308L55.4886 114.706H57.2526ZM63.3472 127.414C62.4232 127.414 61.5832 127.204 60.8272 126.784C60.0832 126.364 59.4952 125.77 59.0632 125.002C58.6432 124.222 58.4332 123.322 58.4332 122.302C58.4332 121.294 58.6492 120.406 59.0812 119.638C59.5252 118.858 60.1252 118.264 60.8812 117.856C61.6372 117.436 62.4832 117.226 63.4192 117.226C64.3552 117.226 65.2012 117.436 65.9572 117.856C66.7132 118.264 67.3072 118.852 67.7392 119.62C68.1832 120.388 68.4052 121.282 68.4052 122.302C68.4052 123.322 68.1772 124.222 67.7212 125.002C67.2772 125.77 66.6712 126.364 65.9032 126.784C65.1352 127.204 64.2832 127.414 63.3472 127.414ZM63.3472 125.974C63.9352 125.974 64.4872 125.836 65.0032 125.56C65.5192 125.284 65.9332 124.87 66.2452 124.318C66.5692 123.766 66.7312 123.094 66.7312 122.302C66.7312 121.51 66.5752 120.838 66.2632 120.286C65.9512 119.734 65.5432 119.326 65.0392 119.062C64.5352 118.786 63.9892 118.648 63.4012 118.648C62.8012 118.648 62.2492 118.786 61.7452 119.062C61.2532 119.326 60.8572 119.734 60.5572 120.286C60.2572 120.838 60.1072 121.51 60.1072 122.302C60.1072 123.106 60.2512 123.784 60.5392 124.336C60.8392 124.888 61.2352 125.302 61.7272 125.578C62.2192 125.842 62.7592 125.974 63.3472 125.974ZM72.1969 118.99C72.4849 118.426 72.8929 117.988 73.4209 117.676C73.9609 117.364 74.6149 117.208 75.3829 117.208V118.9H74.9509C73.1149 118.9 72.1969 119.896 72.1969 121.888V127.252H70.5589V117.388H72.1969V118.99ZM76.6617 122.284C76.6617 121.276 76.8657 120.394 77.2737 119.638C77.6817 118.87 78.2397 118.276 78.9477 117.856C79.6677 117.436 80.4717 117.226 81.3597 117.226C82.1277 117.226 82.8417 117.406 83.5017 117.766C84.1617 118.114 84.6657 118.576 85.0137 119.152V113.932H86.6697V127.252H85.0137V125.398C84.6897 125.986 84.2097 126.472 83.5737 126.856C82.9377 127.228 82.1937 127.414 81.3417 127.414C80.4657 127.414 79.6677 127.198 78.9477 126.766C78.2397 126.334 77.6817 125.728 77.2737 124.948C76.8657 124.168 76.6617 123.28 76.6617 122.284ZM85.0137 122.302C85.0137 121.558 84.8637 120.91 84.5637 120.358C84.2637 119.806 83.8557 119.386 83.3397 119.098C82.8357 118.798 82.2777 118.648 81.6657 118.648C81.0537 118.648 80.4957 118.792 79.9917 119.08C79.4877 119.368 79.0857 119.788 78.7857 120.34C78.4857 120.892 78.3357 121.54 78.3357 122.284C78.3357 123.04 78.4857 123.7 78.7857 124.264C79.0857 124.816 79.4877 125.242 79.9917 125.542C80.4957 125.83 81.0537 125.974 81.6657 125.974C82.2777 125.974 82.8357 125.83 83.3397 125.542C83.8557 125.242 84.2637 124.816 84.5637 124.264C84.8637 123.7 85.0137 123.046 85.0137 122.302ZM91.0758 119.206C91.3998 118.642 91.8798 118.174 92.5158 117.802C93.1638 117.418 93.9138 117.226 94.7658 117.226C95.6418 117.226 96.4338 117.436 97.1418 117.856C97.8618 118.276 98.4258 118.87 98.8338 119.638C99.2418 120.394 99.4458 121.276 99.4458 122.284C99.4458 123.28 99.2418 124.168 98.8338 124.948C98.4258 125.728 97.8618 126.334 97.1418 126.766C96.4338 127.198 95.6418 127.414 94.7658 127.414C93.9258 127.414 93.1818 127.228 92.5338 126.856C91.8978 126.472 91.4118 125.998 91.0758 125.434V131.932H89.4378V117.388H91.0758V119.206ZM97.7718 122.284C97.7718 121.54 97.6218 120.892 97.3218 120.34C97.0218 119.788 96.6138 119.368 96.0978 119.08C95.5938 118.792 95.0358 118.648 94.4238 118.648C93.8238 118.648 93.2658 118.798 92.7498 119.098C92.2458 119.386 91.8378 119.812 91.5258 120.376C91.2258 120.928 91.0758 121.57 91.0758 122.302C91.0758 123.046 91.2258 123.7 91.5258 124.264C91.8378 124.816 92.2458 125.242 92.7498 125.542C93.2658 125.83 93.8238 125.974 94.4238 125.974C95.0358 125.974 95.5938 125.83 96.0978 125.542C96.6138 125.242 97.0218 124.816 97.3218 124.264C97.6218 123.7 97.7718 123.04 97.7718 122.284ZM103.24 118.99C103.528 118.426 103.936 117.988 104.464 117.676C105.004 117.364 105.658 117.208 106.426 117.208V118.9H105.994C104.158 118.9 103.24 119.896 103.24 121.888V127.252H101.602V117.388H103.24V118.99ZM117.317 121.942C117.317 122.254 117.299 122.584 117.263 122.932H109.379C109.439 123.904 109.769 124.666 110.369 125.218C110.981 125.758 111.719 126.028 112.583 126.028C113.291 126.028 113.879 125.866 114.347 125.542C114.827 125.206 115.163 124.762 115.355 124.21H117.119C116.855 125.158 116.327 125.932 115.535 126.532C114.743 127.12 113.759 127.414 112.583 127.414C111.647 127.414 110.807 127.204 110.063 126.784C109.331 126.364 108.755 125.77 108.335 125.002C107.915 124.222 107.705 123.322 107.705 122.302C107.705 121.282 107.909 120.388 108.317 119.62C108.725 118.852 109.295 118.264 110.027 117.856C110.771 117.436 111.623 117.226 112.583 117.226C113.519 117.226 114.347 117.43 115.067 117.838C115.787 118.246 116.339 118.81 116.723 119.53C117.119 120.238 117.317 121.042 117.317 121.942ZM115.625 121.6C115.625 120.976 115.487 120.442 115.211 119.998C114.935 119.542 114.557 119.2 114.077 118.972C113.609 118.732 113.087 118.612 112.511 118.612C111.683 118.612 110.975 118.876 110.387 119.404C109.811 119.932 109.481 120.664 109.397 121.6H115.625ZM122.971 127.414C122.215 127.414 121.537 127.288 120.937 127.036C120.337 126.772 119.863 126.412 119.515 125.956C119.167 125.488 118.975 124.954 118.939 124.354H120.631C120.679 124.846 120.907 125.248 121.315 125.56C121.735 125.872 122.281 126.028 122.953 126.028C123.577 126.028 124.069 125.89 124.429 125.614C124.789 125.338 124.969 124.99 124.969 124.57C124.969 124.138 124.777 123.82 124.393 123.616C124.009 123.4 123.415 123.19 122.611 122.986C121.879 122.794 121.279 122.602 120.811 122.41C120.355 122.206 119.959 121.912 119.623 121.528C119.299 121.132 119.137 120.616 119.137 119.98C119.137 119.476 119.287 119.014 119.587 118.594C119.887 118.174 120.313 117.844 120.865 117.604C121.417 117.352 122.047 117.226 122.755 117.226C123.847 117.226 124.729 117.502 125.401 118.054C126.073 118.606 126.433 119.362 126.481 120.322H124.843C124.807 119.806 124.597 119.392 124.213 119.08C123.841 118.768 123.337 118.612 122.701 118.612C122.113 118.612 121.645 118.738 121.297 118.99C120.949 119.242 120.775 119.572 120.775 119.98C120.775 120.304 120.877 120.574 121.081 120.79C121.297 120.994 121.561 121.162 121.873 121.294C122.197 121.414 122.641 121.552 123.205 121.708C123.913 121.9 124.489 122.092 124.933 122.284C125.377 122.464 125.755 122.74 126.067 123.112C126.391 123.484 126.559 123.97 126.571 124.57C126.571 125.11 126.421 125.596 126.121 126.028C125.821 126.46 125.395 126.802 124.843 127.054C124.303 127.294 123.679 127.414 122.971 127.414ZM132.375 127.414C131.619 127.414 130.941 127.288 130.341 127.036C129.741 126.772 129.267 126.412 128.919 125.956C128.571 125.488 128.379 124.954 128.343 124.354H130.035C130.083 124.846 130.311 125.248 130.719 125.56C131.139 125.872 131.685 126.028 132.357 126.028C132.981 126.028 133.473 125.89 133.833 125.614C134.193 125.338 134.373 124.99 134.373 124.57C134.373 124.138 134.181 123.82 133.797 123.616C133.413 123.4 132.819 123.19 132.015 122.986C131.283 122.794 130.683 122.602 130.215 122.41C129.759 122.206 129.363 121.912 129.027 121.528C128.703 121.132 128.541 120.616 128.541 119.98C128.541 119.476 128.691 119.014 128.991 118.594C129.291 118.174 129.717 117.844 130.269 117.604C130.821 117.352 131.451 117.226 132.159 117.226C133.251 117.226 134.133 117.502 134.805 118.054C135.477 118.606 135.837 119.362 135.885 120.322H134.247C134.211 119.806 134.001 119.392 133.617 119.08C133.245 118.768 132.741 118.612 132.105 118.612C131.517 118.612 131.049 118.738 130.701 118.99C130.353 119.242 130.179 119.572 130.179 119.98C130.179 120.304 130.281 120.574 130.485 120.79C130.701 120.994 130.965 121.162 131.277 121.294C131.601 121.414 132.045 121.552 132.609 121.708C133.317 121.9 133.893 122.092 134.337 122.284C134.781 122.464 135.159 122.74 135.471 123.112C135.795 123.484 135.963 123.97 135.975 124.57C135.975 125.11 135.825 125.596 135.525 126.028C135.225 126.46 134.799 126.802 134.247 127.054C133.707 127.294 133.083 127.414 132.375 127.414Z" fill="#706C63"/>
<defs>
<clipPath id="clip0_213_119">
<rect width="48" height="48" fill="white" transform="translate(64.5 43.252)"/>
</clipPath>
</defs>
</svg>
