<svg width="176" height="177" viewBox="0 0 176 177" fill="none" xmlns="http://www.w3.org/2000/svg">
<circle cx="88" cy="88.252" r="88" fill="#171D20"/>
<path d="M102.625 45.502H73.375C69.0258 45.502 65.5 49.0277 65.5 53.377V81.127C65.5 85.4762 69.0258 89.002 73.375 89.002H102.625C106.974 89.002 110.5 85.4762 110.5 81.127V53.377C110.5 49.0277 106.974 45.502 102.625 45.502Z" fill="#470137"/>
<path d="M88.6322 57.8094L83.0972 67.3194L89.0616 77.4444C89.1835 77.6507 89.131 77.7519 88.9078 77.7519H85.1878C85.0957 77.7617 85.0028 77.7434 84.9212 77.6996C84.8396 77.6558 84.7731 77.5885 84.7303 77.5063L80.5322 69.8057H80.5003L76.4128 77.5063C76.3752 77.5796 76.3184 77.6412 76.2483 77.6845C76.1782 77.7278 76.0977 77.7511 76.0153 77.7519H72.4378C72.2335 77.7519 72.1941 77.6507 72.316 77.4444L78.181 67.5969L72.5935 57.7476C72.4716 57.5844 72.5128 57.5019 72.7153 57.5019H76.4428C76.5228 57.4962 76.6026 57.5135 76.6731 57.5517C76.7435 57.5899 76.8015 57.6475 76.8403 57.7176L80.7778 65.3263H80.8078L84.7247 57.7176C84.7634 57.6478 84.8211 57.5904 84.8912 57.5522C84.9612 57.514 85.0407 57.4966 85.1203 57.5019H88.5103C88.7353 57.5019 88.7747 57.6051 88.6322 57.8094ZM97.726 78.1269C95.551 78.1269 93.8766 77.5101 92.5772 76.2782C91.2778 75.0463 90.6253 73.2257 90.6253 70.8144C90.6253 68.6232 91.3241 66.8232 92.7216 65.4144C93.4367 64.6743 94.2965 64.0893 95.2474 63.6957C96.1983 63.3022 97.2201 63.1086 98.2491 63.1269C98.7096 63.1187 99.1694 63.1679 99.6178 63.2732V56.9282C99.6145 56.9044 99.6166 56.8802 99.6241 56.8574C99.6317 56.8346 99.6444 56.8139 99.6613 56.7968C99.6782 56.7797 99.6988 56.7668 99.7215 56.759C99.7442 56.7512 99.7684 56.7488 99.7922 56.7519H103.22C103.315 56.7519 103.364 56.8101 103.364 56.9282V74.6938C103.364 75.4438 103.688 76.0832 103.739 76.6307C103.749 76.6849 103.74 76.741 103.714 76.7893C103.687 76.8376 103.644 76.875 103.593 76.8951C101.911 77.7163 99.706 78.1269 97.726 78.1269ZM99.6253 75.2226V66.1532C99.5035 65.9394 98.8585 65.7519 98.1985 65.7519C97.6522 65.7378 97.1097 65.8457 96.6105 66.0679C96.1112 66.2901 95.6679 66.621 95.3128 67.0363C94.448 68.0492 93.9815 69.3421 94.0003 70.6738C94.0003 72.3163 94.5628 73.4413 95.296 74.2232C95.6425 74.6206 96.0693 74.94 96.5483 75.1604C97.0272 75.3808 97.5475 75.4972 98.0747 75.5019C98.7741 75.5019 99.4585 75.3969 99.6253 75.2226Z" fill="#FF61F6"/>
<path d="M52.8831 124.462H47.4111L46.4031 127.252H44.6751L49.2111 114.778H51.1011L55.6191 127.252H53.8911L52.8831 124.462ZM52.4151 123.13L50.1471 116.794L47.8791 123.13H52.4151ZM56.984 122.284C56.984 121.276 57.188 120.394 57.596 119.638C58.004 118.87 58.562 118.276 59.27 117.856C59.99 117.436 60.794 117.226 61.682 117.226C62.45 117.226 63.164 117.406 63.824 117.766C64.484 118.114 64.988 118.576 65.336 119.152V113.932H66.992V127.252H65.336V125.398C65.012 125.986 64.532 126.472 63.896 126.856C63.26 127.228 62.516 127.414 61.664 127.414C60.788 127.414 59.99 127.198 59.27 126.766C58.562 126.334 58.004 125.728 57.596 124.948C57.188 124.168 56.984 123.28 56.984 122.284ZM65.336 122.302C65.336 121.558 65.186 120.91 64.886 120.358C64.586 119.806 64.178 119.386 63.662 119.098C63.158 118.798 62.6 118.648 61.988 118.648C61.376 118.648 60.818 118.792 60.314 119.08C59.81 119.368 59.408 119.788 59.108 120.34C58.808 120.892 58.658 121.54 58.658 122.284C58.658 123.04 58.808 123.7 59.108 124.264C59.408 124.816 59.81 125.242 60.314 125.542C60.818 125.83 61.376 125.974 61.988 125.974C62.6 125.974 63.158 125.83 63.662 125.542C64.178 125.242 64.586 124.816 64.886 124.264C65.186 123.7 65.336 123.046 65.336 122.302ZM74.062 127.414C73.138 127.414 72.298 127.204 71.542 126.784C70.798 126.364 70.21 125.77 69.778 125.002C69.358 124.222 69.148 123.322 69.148 122.302C69.148 121.294 69.364 120.406 69.796 119.638C70.24 118.858 70.84 118.264 71.596 117.856C72.352 117.436 73.198 117.226 74.134 117.226C75.07 117.226 75.916 117.436 76.672 117.856C77.428 118.264 78.022 118.852 78.454 119.62C78.898 120.388 79.12 121.282 79.12 122.302C79.12 123.322 78.892 124.222 78.436 125.002C77.992 125.77 77.386 126.364 76.618 126.784C75.85 127.204 74.998 127.414 74.062 127.414ZM74.062 125.974C74.65 125.974 75.202 125.836 75.718 125.56C76.234 125.284 76.648 124.87 76.96 124.318C77.284 123.766 77.446 123.094 77.446 122.302C77.446 121.51 77.29 120.838 76.978 120.286C76.666 119.734 76.258 119.326 75.754 119.062C75.25 118.786 74.704 118.648 74.116 118.648C73.516 118.648 72.964 118.786 72.46 119.062C71.968 119.326 71.572 119.734 71.272 120.286C70.972 120.838 70.822 121.51 70.822 122.302C70.822 123.106 70.966 123.784 71.254 124.336C71.554 124.888 71.95 125.302 72.442 125.578C72.934 125.842 73.474 125.974 74.062 125.974ZM82.9117 119.224C83.2477 118.636 83.7397 118.156 84.3877 117.784C85.0357 117.412 85.7737 117.226 86.6017 117.226C87.4897 117.226 88.2877 117.436 88.9957 117.856C89.7037 118.276 90.2617 118.87 90.6697 119.638C91.0777 120.394 91.2817 121.276 91.2817 122.284C91.2817 123.28 91.0777 124.168 90.6697 124.948C90.2617 125.728 89.6977 126.334 88.9777 126.766C88.2697 127.198 87.4777 127.414 86.6017 127.414C85.7497 127.414 84.9997 127.228 84.3517 126.856C83.7157 126.484 83.2357 126.01 82.9117 125.434V127.252H81.2737V113.932H82.9117V119.224ZM89.6077 122.284C89.6077 121.54 89.4577 120.892 89.1577 120.34C88.8577 119.788 88.4497 119.368 87.9337 119.08C87.4297 118.792 86.8717 118.648 86.2597 118.648C85.6597 118.648 85.1017 118.798 84.5857 119.098C84.0817 119.386 83.6737 119.812 83.3617 120.376C83.0617 120.928 82.9117 121.57 82.9117 122.302C82.9117 123.046 83.0617 123.7 83.3617 124.264C83.6737 124.816 84.0817 125.242 84.5857 125.542C85.1017 125.83 85.6597 125.974 86.2597 125.974C86.8717 125.974 87.4297 125.83 87.9337 125.542C88.4497 125.242 88.8577 124.816 89.1577 124.264C89.4577 123.7 89.6077 123.04 89.6077 122.284ZM102.438 121.942C102.438 122.254 102.42 122.584 102.384 122.932H94.4998C94.5598 123.904 94.8898 124.666 95.4898 125.218C96.1018 125.758 96.8398 126.028 97.7038 126.028C98.4118 126.028 98.9998 125.866 99.4678 125.542C99.9478 125.206 100.284 124.762 100.476 124.21H102.24C101.976 125.158 101.448 125.932 100.656 126.532C99.8638 127.12 98.8798 127.414 97.7038 127.414C96.7678 127.414 95.9278 127.204 95.1838 126.784C94.4518 126.364 93.8758 125.77 93.4558 125.002C93.0358 124.222 92.8258 123.322 92.8258 122.302C92.8258 121.282 93.0298 120.388 93.4378 119.62C93.8458 118.852 94.4158 118.264 95.1478 117.856C95.8918 117.436 96.7438 117.226 97.7038 117.226C98.6398 117.226 99.4678 117.43 100.188 117.838C100.908 118.246 101.46 118.81 101.844 119.53C102.24 120.238 102.438 121.042 102.438 121.942ZM100.746 121.6C100.746 120.976 100.608 120.442 100.332 119.998C100.056 119.542 99.6778 119.2 99.1978 118.972C98.7298 118.732 98.2078 118.612 97.6318 118.612C96.8038 118.612 96.0958 118.876 95.5078 119.404C94.9318 119.932 94.6018 120.664 94.5178 121.6H100.746ZM114.529 120.988L118.381 127.252H116.527L113.521 122.356L110.659 127.252H108.841L112.675 120.988L108.823 114.706H110.659L113.683 119.62L116.563 114.706H118.399L114.529 120.988ZM124.484 114.706C125.852 114.706 127.034 114.964 128.03 115.48C129.038 115.984 129.806 116.71 130.334 117.658C130.874 118.606 131.144 119.722 131.144 121.006C131.144 122.29 130.874 123.406 130.334 124.354C129.806 125.29 129.038 126.01 128.03 126.514C127.034 127.006 125.852 127.252 124.484 127.252H120.578V114.706H124.484ZM124.484 125.902C126.104 125.902 127.34 125.476 128.192 124.624C129.044 123.76 129.47 122.554 129.47 121.006C129.47 119.446 129.038 118.228 128.174 117.352C127.322 116.476 126.092 116.038 124.484 116.038H122.216V125.902H124.484Z" fill="#706C63"/>
</svg>
